# xmcd CD database file generated by Grip 3.2.0
# 
# Track frame offsets:
#       150
#       12334
#       20895
#       32802
#       37555
#       55639
#       75442
#       84877
#       92840
#       110600
#       121342
#       129970
#       136375
#       138797
#       152485
#       158780
#       172247
#       176662
#       182745
#       199245
#       204580
#       215990
#       229130
#       242650
#       246062
#       267825
# 
# Disc length: 3704 seconds
# 
# Revision: 6
# Processed by: cddbd v1.5.2PL0 Copyright (c) Steve Scherf et al.
# Submitted via: Grip 3.2.0
# 
DISCID=5d0e761a
DTITLE=Luther Wright and the Wrongs - Rebuild the Wall
DYEAR=2001
DGENRE=Country
TTITLE0=In The Flesh?
TTITLE1=The Thin Ice
TTITLE2=Another Brick In The Wall - part 1
TTITLE3=The Happiest Days Of Our Lives
TTITLE4=Another Brick In The Wall - part 2
TTITLE5=Mother
TTITLE6=Goodbye Blue Sky
TTITLE7=Empty Spaces
TTITLE8=Young Lust
TTITLE9=One of My Turns
TTITLE10=Don't Leave Me Now
TTITLE11=Another Brick In The Wall - part 3
TTITLE12=Goodbye Cruel World
TTITLE13=Hey You
TTITLE14=Is There Anybody Out There?
TTITLE15=Nobody Home
TTITLE16=Vera
TTITLE17=Bring The Boys Back Home
TTITLE18=Comfortably Numb
TTITLE19=The Show Must Go On
TTITLE20=In the Flesh
TTITLE21=Run Like Hell
TTITLE22=Waiting For The Worms
TTITLE23=Stop
TTITLE24=The Trial
TTITLE25=Outside The Wall
EXTD=YEAR: 2001
EXTT0=
EXTT1=
EXTT2=
EXTT3=
EXTT4=
EXTT5=
EXTT6=
EXTT7=
EXTT8=
EXTT9=
EXTT10=
EXTT11=
EXTT12=
EXTT13=
EXTT14=
EXTT15=
EXTT16=
EXTT17=
EXTT18=
EXTT19=
EXTT20=
EXTT21=
EXTT22=
EXTT23=
EXTT24=
EXTT25=
PLAYORDER=
